<mxfile host="Electron" modified="2024-06-13T19:36:11.985Z" agent="Mozilla/5.0 (Windows NT 10.0; Win64; x64) AppleWebKit/537.36 (KHTML, like Gecko) draw.io/21.7.5 Chrome/114.0.5735.289 Electron/25.8.1 Safari/537.36" etag="aeP3KZ5tqXvWH66X6JzX" version="21.7.5" type="device">
  <diagram name="Страница — 1" id="XKW58HYgedYbX6auHPsJ">
    <mxGraphModel dx="1421" dy="1232" grid="0" gridSize="10" guides="1" tooltips="1" connect="1" arrows="1" fold="1" page="0" pageScale="1" pageWidth="827" pageHeight="1169" math="0" shadow="0">
      <root>
        <mxCell id="0" />
        <mxCell id="1" parent="0" />
        <mxCell id="3u2fCf5muLAQluuMBq0R-14" style="rounded=0;orthogonalLoop=1;jettySize=auto;html=1;entryX=0.5;entryY=1;entryDx=0;entryDy=0;dashed=1;endArrow=openThin;endFill=0;strokeColor=#CC0066;exitX=0.5;exitY=0;exitDx=0;exitDy=0;" parent="1" source="NwIWeNi1DOC7KzOtV7e6-35" target="NwIWeNi1DOC7KzOtV7e6-27" edge="1">
          <mxGeometry relative="1" as="geometry">
            <mxPoint x="413" y="269" as="sourcePoint" />
            <mxPoint x="413" y="397" as="targetPoint" />
          </mxGeometry>
        </mxCell>
        <mxCell id="3u2fCf5muLAQluuMBq0R-26" style="rounded=0;orthogonalLoop=1;jettySize=auto;html=1;exitX=0.5;exitY=0;exitDx=0;exitDy=0;entryX=0;entryY=0.75;entryDx=0;entryDy=0;endArrow=openThin;endFill=0;strokeColor=#CC0066;dashed=1;" parent="1" source="NwIWeNi1DOC7KzOtV7e6-47" target="NwIWeNi1DOC7KzOtV7e6-20" edge="1">
          <mxGeometry relative="1" as="geometry">
            <mxPoint x="443" y="209" as="sourcePoint" />
            <mxPoint x="443" y="103" as="targetPoint" />
          </mxGeometry>
        </mxCell>
        <mxCell id="3u2fCf5muLAQluuMBq0R-32" value="" style="group" parent="1" vertex="1" connectable="0">
          <mxGeometry x="529" y="217" width="147" height="60" as="geometry" />
        </mxCell>
        <mxCell id="3u2fCf5muLAQluuMBq0R-33" value="Создание пользователя" style="whiteSpace=wrap;html=1;strokeColor=#CC0066;fillColor=#FFF94F;" parent="3u2fCf5muLAQluuMBq0R-32" vertex="1">
          <mxGeometry x="27" width="120" height="60" as="geometry" />
        </mxCell>
        <mxCell id="3u2fCf5muLAQluuMBq0R-34" value="" style="rounded=0;whiteSpace=wrap;html=1;fillColor=#FFF94F;strokeColor=#CC0066;" parent="3u2fCf5muLAQluuMBq0R-32" vertex="1">
          <mxGeometry y="15" width="42" height="12" as="geometry" />
        </mxCell>
        <mxCell id="3u2fCf5muLAQluuMBq0R-35" value="" style="rounded=0;whiteSpace=wrap;html=1;fillColor=#FFF94F;strokeColor=#CC0066;" parent="3u2fCf5muLAQluuMBq0R-32" vertex="1">
          <mxGeometry y="36" width="42" height="12" as="geometry" />
        </mxCell>
        <mxCell id="3u2fCf5muLAQluuMBq0R-36" style="rounded=0;orthogonalLoop=1;jettySize=auto;html=1;entryX=0;entryY=0.5;entryDx=0;entryDy=0;endArrow=openThin;endFill=0;strokeColor=#CC0066;dashed=1;" parent="1" target="3u2fCf5muLAQluuMBq0R-34" edge="1">
          <mxGeometry relative="1" as="geometry">
            <mxPoint x="473" y="239" as="sourcePoint" />
          </mxGeometry>
        </mxCell>
        <mxCell id="3u2fCf5muLAQluuMBq0R-45" style="rounded=0;orthogonalLoop=1;jettySize=auto;html=1;entryX=0;entryY=0.5;entryDx=0;entryDy=0;endArrow=openThin;endFill=0;strokeColor=#CC0066;dashed=1;" parent="1" target="NwIWeNi1DOC7KzOtV7e6-3" edge="1">
          <mxGeometry relative="1" as="geometry">
            <mxPoint x="473" y="239" as="sourcePoint" />
            <mxPoint x="529.0000000000001" y="165.9999999999999" as="targetPoint" />
          </mxGeometry>
        </mxCell>
        <mxCell id="3u2fCf5muLAQluuMBq0R-46" style="rounded=0;orthogonalLoop=1;jettySize=auto;html=1;entryX=0;entryY=0.5;entryDx=0;entryDy=0;endArrow=openThin;endFill=0;strokeColor=#CC0066;dashed=1;" parent="1" target="NwIWeNi1DOC7KzOtV7e6-16" edge="1">
          <mxGeometry relative="1" as="geometry">
            <mxPoint x="473" y="239" as="sourcePoint" />
            <mxPoint x="529" y="304.9999999999999" as="targetPoint" />
          </mxGeometry>
        </mxCell>
        <mxCell id="3u2fCf5muLAQluuMBq0R-77" style="rounded=0;orthogonalLoop=1;jettySize=auto;html=1;entryX=0;entryY=0.5;entryDx=0;entryDy=0;endArrow=openThin;endFill=0;strokeColor=#CC0066;dashed=1;" parent="1" target="NwIWeNi1DOC7KzOtV7e6-7" edge="1">
          <mxGeometry relative="1" as="geometry">
            <mxPoint x="473" y="239" as="sourcePoint" />
          </mxGeometry>
        </mxCell>
        <mxCell id="3u2fCf5muLAQluuMBq0R-78" value="" style="group;" parent="1" vertex="1" connectable="0">
          <mxGeometry x="771" y="351" width="147" height="60" as="geometry" />
        </mxCell>
        <mxCell id="3u2fCf5muLAQluuMBq0R-79" value="Смена&lt;br&gt;темы" style="whiteSpace=wrap;html=1;fillColor=#FFF94F;strokeColor=#CC0066;" parent="3u2fCf5muLAQluuMBq0R-78" vertex="1">
          <mxGeometry x="27" width="120" height="60" as="geometry" />
        </mxCell>
        <mxCell id="3u2fCf5muLAQluuMBq0R-80" value="" style="rounded=0;whiteSpace=wrap;html=1;fillColor=#FFF94F;strokeColor=#CC0066;" parent="3u2fCf5muLAQluuMBq0R-78" vertex="1">
          <mxGeometry y="15" width="42" height="12" as="geometry" />
        </mxCell>
        <mxCell id="3u2fCf5muLAQluuMBq0R-81" value="" style="rounded=0;whiteSpace=wrap;html=1;fillColor=#FFF94F;strokeColor=#CC0066;" parent="3u2fCf5muLAQluuMBq0R-78" vertex="1">
          <mxGeometry y="36" width="42" height="12" as="geometry" />
        </mxCell>
        <mxCell id="3u2fCf5muLAQluuMBq0R-82" style="rounded=0;orthogonalLoop=1;jettySize=auto;html=1;entryX=0.5;entryY=0;entryDx=0;entryDy=0;endArrow=openThin;endFill=0;strokeColor=#CC0066;dashed=1;exitX=0.5;exitY=1;exitDx=0;exitDy=0;" parent="1" source="NwIWeNi1DOC7KzOtV7e6-6" target="3u2fCf5muLAQluuMBq0R-79" edge="1">
          <mxGeometry relative="1" as="geometry">
            <mxPoint x="473" y="239" as="sourcePoint" />
          </mxGeometry>
        </mxCell>
        <mxCell id="NwIWeNi1DOC7KzOtV7e6-1" value="" style="group" vertex="1" connectable="0" parent="1">
          <mxGeometry x="531" y="135" width="147" height="60" as="geometry" />
        </mxCell>
        <mxCell id="NwIWeNi1DOC7KzOtV7e6-2" value="Загрузка &lt;br&gt;вложения" style="whiteSpace=wrap;html=1;strokeColor=#CC0066;fillColor=#FFF94F;" vertex="1" parent="NwIWeNi1DOC7KzOtV7e6-1">
          <mxGeometry x="27" width="120" height="60" as="geometry" />
        </mxCell>
        <mxCell id="NwIWeNi1DOC7KzOtV7e6-3" value="" style="rounded=0;whiteSpace=wrap;html=1;fillColor=#FFF94F;strokeColor=#CC0066;" vertex="1" parent="NwIWeNi1DOC7KzOtV7e6-1">
          <mxGeometry y="15" width="42" height="12" as="geometry" />
        </mxCell>
        <mxCell id="NwIWeNi1DOC7KzOtV7e6-4" value="" style="rounded=0;whiteSpace=wrap;html=1;fillColor=#FFF94F;strokeColor=#CC0066;" vertex="1" parent="NwIWeNi1DOC7KzOtV7e6-1">
          <mxGeometry y="36" width="42" height="12" as="geometry" />
        </mxCell>
        <mxCell id="NwIWeNi1DOC7KzOtV7e6-5" value="" style="group" vertex="1" connectable="0" parent="1">
          <mxGeometry x="771" y="91" width="147" height="60" as="geometry" />
        </mxCell>
        <mxCell id="NwIWeNi1DOC7KzOtV7e6-6" value="Хранилище шаблонов" style="whiteSpace=wrap;html=1;strokeColor=#CC0066;fillColor=#FFF94F;" vertex="1" parent="NwIWeNi1DOC7KzOtV7e6-5">
          <mxGeometry x="27" width="120" height="60" as="geometry" />
        </mxCell>
        <mxCell id="NwIWeNi1DOC7KzOtV7e6-7" value="" style="rounded=0;whiteSpace=wrap;html=1;fillColor=#FFF94F;strokeColor=#CC0066;" vertex="1" parent="NwIWeNi1DOC7KzOtV7e6-5">
          <mxGeometry y="15" width="42" height="12" as="geometry" />
        </mxCell>
        <mxCell id="NwIWeNi1DOC7KzOtV7e6-8" value="" style="rounded=0;whiteSpace=wrap;html=1;fillColor=#FFF94F;strokeColor=#CC0066;" vertex="1" parent="NwIWeNi1DOC7KzOtV7e6-5">
          <mxGeometry y="36" width="42" height="12" as="geometry" />
        </mxCell>
        <mxCell id="NwIWeNi1DOC7KzOtV7e6-14" value="" style="group" vertex="1" connectable="0" parent="1">
          <mxGeometry x="529" y="288" width="147" height="60" as="geometry" />
        </mxCell>
        <mxCell id="NwIWeNi1DOC7KzOtV7e6-15" value="Отправка&lt;br&gt;сообщения" style="whiteSpace=wrap;html=1;strokeColor=#CC0066;fillColor=#FFF94F;" vertex="1" parent="NwIWeNi1DOC7KzOtV7e6-14">
          <mxGeometry x="27" width="120" height="60" as="geometry" />
        </mxCell>
        <mxCell id="NwIWeNi1DOC7KzOtV7e6-16" value="" style="rounded=0;whiteSpace=wrap;html=1;fillColor=#FFF94F;strokeColor=#CC0066;" vertex="1" parent="NwIWeNi1DOC7KzOtV7e6-14">
          <mxGeometry y="15" width="42" height="12" as="geometry" />
        </mxCell>
        <mxCell id="NwIWeNi1DOC7KzOtV7e6-17" value="" style="rounded=0;whiteSpace=wrap;html=1;fillColor=#FFF94F;strokeColor=#CC0066;" vertex="1" parent="NwIWeNi1DOC7KzOtV7e6-14">
          <mxGeometry y="36" width="42" height="12" as="geometry" />
        </mxCell>
        <mxCell id="NwIWeNi1DOC7KzOtV7e6-18" value="" style="group" vertex="1" connectable="0" parent="1">
          <mxGeometry x="499" y="-77" width="147" height="60" as="geometry" />
        </mxCell>
        <mxCell id="NwIWeNi1DOC7KzOtV7e6-19" value="MariaDB" style="whiteSpace=wrap;html=1;strokeColor=#CC0066;fillColor=#FFF94F;" vertex="1" parent="NwIWeNi1DOC7KzOtV7e6-18">
          <mxGeometry x="27" width="120" height="60" as="geometry" />
        </mxCell>
        <mxCell id="NwIWeNi1DOC7KzOtV7e6-20" value="" style="rounded=0;whiteSpace=wrap;html=1;fillColor=#FFF94F;strokeColor=#CC0066;" vertex="1" parent="NwIWeNi1DOC7KzOtV7e6-18">
          <mxGeometry y="15" width="42" height="12" as="geometry" />
        </mxCell>
        <mxCell id="NwIWeNi1DOC7KzOtV7e6-21" value="" style="rounded=0;whiteSpace=wrap;html=1;fillColor=#FFF94F;strokeColor=#CC0066;" vertex="1" parent="NwIWeNi1DOC7KzOtV7e6-18">
          <mxGeometry y="36" width="42" height="12" as="geometry" />
        </mxCell>
        <mxCell id="NwIWeNi1DOC7KzOtV7e6-26" value="" style="group" vertex="1" connectable="0" parent="1">
          <mxGeometry x="326" y="210" width="147" height="60" as="geometry" />
        </mxCell>
        <mxCell id="NwIWeNi1DOC7KzOtV7e6-27" value="Web Server" style="whiteSpace=wrap;html=1;strokeColor=#CC0066;fillColor=#FFF94F;" vertex="1" parent="NwIWeNi1DOC7KzOtV7e6-26">
          <mxGeometry x="27" width="120" height="60" as="geometry" />
        </mxCell>
        <mxCell id="NwIWeNi1DOC7KzOtV7e6-28" value="" style="rounded=0;whiteSpace=wrap;html=1;fillColor=#FFF94F;strokeColor=#CC0066;" vertex="1" parent="NwIWeNi1DOC7KzOtV7e6-26">
          <mxGeometry y="15" width="42" height="12" as="geometry" />
        </mxCell>
        <mxCell id="NwIWeNi1DOC7KzOtV7e6-29" value="" style="rounded=0;whiteSpace=wrap;html=1;fillColor=#FFF94F;strokeColor=#CC0066;" vertex="1" parent="NwIWeNi1DOC7KzOtV7e6-26">
          <mxGeometry y="36" width="42" height="12" as="geometry" />
        </mxCell>
        <mxCell id="NwIWeNi1DOC7KzOtV7e6-34" value="" style="group" vertex="1" connectable="0" parent="1">
          <mxGeometry x="326" y="411" width="147" height="60" as="geometry" />
        </mxCell>
        <mxCell id="NwIWeNi1DOC7KzOtV7e6-35" value="Клиент" style="whiteSpace=wrap;html=1;strokeColor=#CC0066;fillColor=#FFF94F;" vertex="1" parent="NwIWeNi1DOC7KzOtV7e6-34">
          <mxGeometry x="27" width="120" height="60" as="geometry" />
        </mxCell>
        <mxCell id="NwIWeNi1DOC7KzOtV7e6-36" value="" style="rounded=0;whiteSpace=wrap;html=1;fillColor=#FFF94F;strokeColor=#CC0066;" vertex="1" parent="NwIWeNi1DOC7KzOtV7e6-34">
          <mxGeometry y="15" width="42" height="12" as="geometry" />
        </mxCell>
        <mxCell id="NwIWeNi1DOC7KzOtV7e6-37" value="" style="rounded=0;whiteSpace=wrap;html=1;fillColor=#FFF94F;strokeColor=#CC0066;" vertex="1" parent="NwIWeNi1DOC7KzOtV7e6-34">
          <mxGeometry y="36" width="42" height="12" as="geometry" />
        </mxCell>
        <mxCell id="NwIWeNi1DOC7KzOtV7e6-38" value="" style="group" vertex="1" connectable="0" parent="1">
          <mxGeometry x="360" y="-8" width="147" height="60" as="geometry" />
        </mxCell>
        <mxCell id="NwIWeNi1DOC7KzOtV7e6-39" value="&lt;font style=&quot;font-size: 12px;&quot;&gt;Авторизация / Регистрация&lt;/font&gt;" style="whiteSpace=wrap;html=1;strokeColor=#CC0066;fillColor=#FFF94F;" vertex="1" parent="NwIWeNi1DOC7KzOtV7e6-38">
          <mxGeometry x="27" width="120" height="60" as="geometry" />
        </mxCell>
        <mxCell id="NwIWeNi1DOC7KzOtV7e6-40" value="" style="rounded=0;whiteSpace=wrap;html=1;fillColor=#FFF94F;strokeColor=#CC0066;" vertex="1" parent="NwIWeNi1DOC7KzOtV7e6-38">
          <mxGeometry y="15" width="42" height="12" as="geometry" />
        </mxCell>
        <mxCell id="NwIWeNi1DOC7KzOtV7e6-41" value="" style="rounded=0;whiteSpace=wrap;html=1;fillColor=#FFF94F;strokeColor=#CC0066;" vertex="1" parent="NwIWeNi1DOC7KzOtV7e6-38">
          <mxGeometry y="36" width="42" height="12" as="geometry" />
        </mxCell>
        <mxCell id="NwIWeNi1DOC7KzOtV7e6-42" value="" style="group" vertex="1" connectable="0" parent="1">
          <mxGeometry x="109" y="88" width="147" height="60" as="geometry" />
        </mxCell>
        <mxCell id="NwIWeNi1DOC7KzOtV7e6-43" value="&lt;font style=&quot;font-size: 12px;&quot;&gt;Получение сообщений&lt;/font&gt;" style="whiteSpace=wrap;html=1;strokeColor=#CC0066;fillColor=#FFF94F;" vertex="1" parent="NwIWeNi1DOC7KzOtV7e6-42">
          <mxGeometry x="27" width="120" height="60" as="geometry" />
        </mxCell>
        <mxCell id="NwIWeNi1DOC7KzOtV7e6-44" value="" style="rounded=0;whiteSpace=wrap;html=1;fillColor=#FFF94F;strokeColor=#CC0066;" vertex="1" parent="NwIWeNi1DOC7KzOtV7e6-42">
          <mxGeometry y="15" width="42" height="12" as="geometry" />
        </mxCell>
        <mxCell id="NwIWeNi1DOC7KzOtV7e6-45" value="" style="rounded=0;whiteSpace=wrap;html=1;fillColor=#FFF94F;strokeColor=#CC0066;" vertex="1" parent="NwIWeNi1DOC7KzOtV7e6-42">
          <mxGeometry y="36" width="42" height="12" as="geometry" />
        </mxCell>
        <mxCell id="NwIWeNi1DOC7KzOtV7e6-46" value="" style="group" vertex="1" connectable="0" parent="1">
          <mxGeometry x="231" y="-80" width="147" height="60" as="geometry" />
        </mxCell>
        <mxCell id="NwIWeNi1DOC7KzOtV7e6-47" value="Модуль загрузки писем" style="whiteSpace=wrap;html=1;strokeColor=#CC0066;fillColor=#FFF94F;" vertex="1" parent="NwIWeNi1DOC7KzOtV7e6-46">
          <mxGeometry x="27" width="120" height="60" as="geometry" />
        </mxCell>
        <mxCell id="NwIWeNi1DOC7KzOtV7e6-48" value="" style="rounded=0;whiteSpace=wrap;html=1;fillColor=#FFF94F;strokeColor=#CC0066;" vertex="1" parent="NwIWeNi1DOC7KzOtV7e6-46">
          <mxGeometry y="15" width="42" height="12" as="geometry" />
        </mxCell>
        <mxCell id="NwIWeNi1DOC7KzOtV7e6-49" value="" style="rounded=0;whiteSpace=wrap;html=1;fillColor=#FFF94F;strokeColor=#CC0066;" vertex="1" parent="NwIWeNi1DOC7KzOtV7e6-46">
          <mxGeometry y="36" width="42" height="12" as="geometry" />
        </mxCell>
        <mxCell id="NwIWeNi1DOC7KzOtV7e6-51" style="rounded=0;orthogonalLoop=1;jettySize=auto;html=1;entryX=0.458;entryY=1.005;entryDx=0;entryDy=0;endArrow=openThin;endFill=0;strokeColor=#CC0066;dashed=1;exitX=0.75;exitY=0;exitDx=0;exitDy=0;entryPerimeter=0;" edge="1" parent="1" source="NwIWeNi1DOC7KzOtV7e6-27" target="NwIWeNi1DOC7KzOtV7e6-39">
          <mxGeometry relative="1" as="geometry">
            <mxPoint x="423" y="220" as="sourcePoint" />
            <mxPoint x="328" y="-10" as="targetPoint" />
          </mxGeometry>
        </mxCell>
        <mxCell id="NwIWeNi1DOC7KzOtV7e6-52" style="rounded=0;orthogonalLoop=1;jettySize=auto;html=1;entryX=0.5;entryY=1;entryDx=0;entryDy=0;endArrow=openThin;endFill=0;strokeColor=#CC0066;dashed=1;exitX=0;exitY=0;exitDx=0;exitDy=0;" edge="1" parent="1" source="NwIWeNi1DOC7KzOtV7e6-27" target="NwIWeNi1DOC7KzOtV7e6-43">
          <mxGeometry relative="1" as="geometry">
            <mxPoint x="393" y="220" as="sourcePoint" />
            <mxPoint x="255" y="156" as="targetPoint" />
          </mxGeometry>
        </mxCell>
        <mxCell id="NwIWeNi1DOC7KzOtV7e6-53" style="rounded=0;orthogonalLoop=1;jettySize=auto;html=1;exitX=1;exitY=0.5;exitDx=0;exitDy=0;entryX=0.5;entryY=1;entryDx=0;entryDy=0;endArrow=openThin;endFill=0;strokeColor=#CC0066;dashed=1;" edge="1" parent="1" source="NwIWeNi1DOC7KzOtV7e6-39" target="NwIWeNi1DOC7KzOtV7e6-19">
          <mxGeometry relative="1" as="geometry">
            <mxPoint x="328" y="-70" as="sourcePoint" />
            <mxPoint x="509" y="-43" as="targetPoint" />
          </mxGeometry>
        </mxCell>
        <mxCell id="NwIWeNi1DOC7KzOtV7e6-54" style="rounded=0;orthogonalLoop=1;jettySize=auto;html=1;exitX=0.5;exitY=0;exitDx=0;exitDy=0;entryX=0.25;entryY=1;entryDx=0;entryDy=0;endArrow=openThin;endFill=0;strokeColor=#CC0066;dashed=1;" edge="1" parent="1" source="NwIWeNi1DOC7KzOtV7e6-43" target="NwIWeNi1DOC7KzOtV7e6-47">
          <mxGeometry relative="1" as="geometry">
            <mxPoint x="328" y="-70" as="sourcePoint" />
            <mxPoint x="509" y="-43" as="targetPoint" />
          </mxGeometry>
        </mxCell>
      </root>
    </mxGraphModel>
  </diagram>
</mxfile>
